<?xml version="1.0" encoding="UTF-8" standalone="no"?>
<!DOCTYPE svg PUBLIC "-//W3C//DTD SVG 1.1//EN"
 "http://www.w3.org/Graphics/SVG/1.1/DTD/svg11.dtd">
<!-- Generated by graphviz version 2.44.0 (0)
 -->
<!-- Pages: 1 -->
<svg width="551pt" height="484pt"
 viewBox="0.00 0.00 550.57 484.21" xmlns="http://www.w3.org/2000/svg" xmlns:xlink="http://www.w3.org/1999/xlink">
<g id="graph0" class="graph" transform="scale(1 1) rotate(0) translate(4 480.21)">
<polygon fill="white" stroke="transparent" points="-4,4 -4,-480.21 546.57,-480.21 546.57,4 -4,4"/>
<g id="clust1" class="cluster">
<title>cluster_RHELBU751</title>
<polygon fill="none" stroke="black" points="35.57,-8 35.57,-460.17 534.57,-460.17 534.57,-8 35.57,-8"/>
<text text-anchor="middle" x="285.07" y="-444.97" font-family="Times-Roman" font-size="14.00">Authentication against external IdP</text>
</g>
<g id="clust6" class="cluster">
<title>cluster_IPA_Client</title>
<polygon fill="none" stroke="black" points="285.57,-189 285.57,-339 496.57,-339 496.57,-189 285.57,-189"/>
<text text-anchor="middle" x="391.07" y="-323.8" font-family="Times-Roman" font-size="14.00">IPA Client</text>
</g>
<g id="clust10" class="cluster">
<title>cluster_IPA_Server</title>
<polygon fill="none" stroke="black" points="43.57,-81 43.57,-264 277.57,-264 277.57,-81 43.57,-81"/>
<text text-anchor="middle" x="160.57" y="-248.8" font-family="Times-Roman" font-size="14.00">IPA Server</text>
</g>
<!-- client -->
<g id="node1" class="node">
<title>client</title>
<polygon fill="none" stroke="black" points="350.96,-397.8 317.81,-397.8 307.57,-429.25 297.32,-397.8 264.17,-397.8 290.99,-378.37 280.75,-346.92 307.57,-366.35 334.39,-346.92 324.14,-378.37 350.96,-397.8"/>
<text text-anchor="middle" x="307.57" y="-386.18" font-family="Times-Roman" font-size="8.00">User</text>
</g>
<!-- client_browser -->
<g id="node2" class="node">
<title>client_browser</title>
<polygon fill="#b5fed9" stroke="black" points="526.57,-406.08 478.57,-406.08 478.57,-370.08 526.57,-370.08 526.57,-406.08"/>
<text text-anchor="middle" x="502.57" y="-386.18" font-family="Times-Roman" font-size="8.00">Browser</text>
</g>
<!-- client&#45;&gt;client_browser -->
<g id="edge2" class="edge">
<title>client&#45;&gt;client_browser</title>
<path fill="none" stroke="black" d="M315.82,-404.2C327.91,-425.47 352.71,-461.17 386.57,-469.17 418.81,-476.78 436.4,-482.83 460.57,-460.17 473.83,-447.73 484.18,-430.16 491.29,-415.48"/>
<polygon fill="black" stroke="black" points="494.5,-416.89 495.49,-406.34 488.14,-413.96 494.5,-416.89"/>
</g>
<!-- client_ssh -->
<g id="node3" class="node">
<title>client_ssh</title>
<polygon fill="#b5fed9" stroke="black" points="442.57,-406.08 386.57,-406.08 386.57,-370.08 442.57,-370.08 442.57,-406.08"/>
<text text-anchor="middle" x="414.57" y="-386.18" font-family="Times-Roman" font-size="8.00">SSH client</text>
</g>
<!-- client&#45;&gt;client_ssh -->
<g id="edge1" class="edge">
<title>client&#45;&gt;client_ssh</title>
<path fill="none" stroke="black" d="M347.93,-388.08C357.33,-388.08 366.73,-388.08 376.13,-388.08"/>
<polygon fill="black" stroke="black" points="347.66,-384.58 337.66,-388.08 347.66,-391.58 347.66,-384.58"/>
<polygon fill="black" stroke="black" points="376.33,-391.58 386.33,-388.08 376.33,-384.58 376.33,-391.58"/>
</g>
<!-- client_invisible -->
<!-- client_browser&#45;&gt;client_invisible -->
<!-- client_ssh&#45;&gt;client_browser -->
<!-- sshd -->
<g id="node5" class="node">
<title>sshd</title>
<polygon fill="none" stroke="black" points="488.07,-308 421.07,-308 421.07,-272 488.07,-272 488.07,-308"/>
<text text-anchor="middle" x="454.57" y="-288.1" font-family="Times-Roman" font-size="8.00">SSH daemon</text>
</g>
<!-- client_ssh&#45;&gt;sshd -->
<g id="edge6" class="edge">
<title>client_ssh&#45;&gt;sshd</title>
<path fill="none" stroke="black" d="M432.35,-369.91C441.56,-355.42 450.83,-334.45 455.67,-317.77"/>
<polygon fill="black" stroke="black" points="459.08,-318.58 458.08,-308.03 452.28,-316.9 459.08,-318.58"/>
</g>
<!-- ipa_client_invisible -->
<!-- client_invisible&#45;&gt;ipa_client_invisible -->
<!-- sshd&#45;&gt;client_ssh -->
<g id="edge9" class="edge">
<title>sshd&#45;&gt;client_ssh</title>
<path fill="none" stroke="black" stroke-dasharray="5,2" d="M436.88,-308.03C427.67,-322.47 418.39,-343.43 413.51,-360.15"/>
<polygon fill="black" stroke="black" points="410.1,-359.36 411.09,-369.91 416.9,-361.05 410.1,-359.36"/>
</g>
<!-- sssd -->
<g id="node6" class="node">
<title>sssd</title>
<polygon fill="none" stroke="black" points="395.57,-233 323.57,-233 323.57,-197 395.57,-197 395.57,-233"/>
<text text-anchor="middle" x="359.57" y="-213.1" font-family="Times-Roman" font-size="8.00">SSSD daemon</text>
</g>
<!-- sshd&#45;&gt;sssd -->
<g id="edge4" class="edge">
<title>sshd&#45;&gt;sssd</title>
<path fill="none" stroke="black" d="M411.12,-279.76C400.5,-275.75 390.06,-270.48 381.57,-264 373.51,-257.86 366,-249.8 360.59,-242.05"/>
<polygon fill="black" stroke="black" points="410.29,-283.18 420.88,-283.09 412.55,-276.55 410.29,-283.18"/>
<polygon fill="black" stroke="black" points="363.45,-240 355.31,-233.22 357.44,-243.6 363.45,-240"/>
<text text-anchor="middle" x="356.47" y="-257.53" font-family="Times-Roman" font-size="8.00">NSS identity</text>
</g>
<!-- sshd&#45;&gt;sssd -->
<g id="edge5" class="edge">
<title>sshd&#45;&gt;sssd</title>
<path fill="none" stroke="black" d="M420.82,-266.36C419.71,-265.59 418.62,-264.8 417.57,-264 408.98,-257.45 401.02,-248.74 393.45,-240.54"/>
<polygon fill="black" stroke="black" points="419.29,-269.53 429.62,-271.88 423.01,-263.6 419.29,-269.53"/>
<polygon fill="black" stroke="black" points="395.98,-238.13 386.59,-233.22 390.88,-242.91 395.98,-238.13"/>
<text text-anchor="middle" x="366.76" y="-247.62" font-family="Times-Roman" font-size="8.00">PAM authentication</text>
</g>
<!-- KDC -->
<g id="node9" class="node">
<title>KDC</title>
<polygon fill="none" stroke="black" points="269.07,-233 200.07,-233 200.07,-197 269.07,-197 269.07,-233"/>
<text text-anchor="middle" x="234.57" y="-213.1" font-family="Times-Roman" font-size="8.00">Kerberos KDC</text>
</g>
<!-- sshd&#45;&gt;KDC -->
<g id="edge10" class="edge">
<title>sshd&#45;&gt;KDC</title>
<path fill="none" stroke="black" stroke-dasharray="5,2" d="M420.88,-276.41C415.17,-274.67 409.25,-273.11 403.57,-272 375.81,-266.59 301.94,-276.49 276.57,-264 266.33,-258.96 257.53,-250.2 250.66,-241.53"/>
<polygon fill="black" stroke="black" points="253.42,-239.37 244.69,-233.37 247.77,-243.51 253.42,-239.37"/>
<text text-anchor="middle" x="287.21" y="-264.29" font-family="Times-Roman" font-size="8.00">GSSAPI Authentication</text>
</g>
<!-- LDAP -->
<g id="node8" class="node">
<title>LDAP</title>
<polygon fill="none" stroke="black" points="269.07,-125 206.07,-125 206.07,-89 269.07,-89 269.07,-125"/>
<text text-anchor="middle" x="237.57" y="-105.1" font-family="Times-Roman" font-size="8.00">LDAP server</text>
</g>
<!-- sssd&#45;&gt;LDAP -->
<g id="edge7" class="edge">
<title>sssd&#45;&gt;LDAP</title>
<path fill="none" stroke="black" d="M339.97,-196.97C319.72,-179.38 287.96,-151.78 265.18,-131.99"/>
<polygon fill="black" stroke="black" points="267.37,-129.26 257.53,-125.34 262.78,-134.54 267.37,-129.26"/>
<text text-anchor="middle" x="283.33" y="-163.83" font-family="Times-Roman" font-size="8.00">Identity</text>
</g>
<!-- sssd&#45;&gt;KDC -->
<g id="edge8" class="edge">
<title>sssd&#45;&gt;KDC</title>
<path fill="none" stroke="black" d="M323.22,-215C308.6,-215 293.98,-215 279.36,-215"/>
<polygon fill="black" stroke="black" points="279.24,-211.5 269.24,-215 279.24,-218.5 279.24,-211.5"/>
<text text-anchor="middle" x="296.49" y="-208.6" font-family="Times-Roman" font-size="8.00">GSSAPI Authentication</text>
</g>
<!-- ipa_server_invisible -->
<!-- ipa_client_invisible&#45;&gt;ipa_server_invisible -->
<!-- KDC&#45;&gt;LDAP -->
<g id="edge11" class="edge">
<title>KDC&#45;&gt;LDAP</title>
<path fill="none" stroke="black" d="M243.64,-196.65C246.06,-191.15 248.34,-184.96 249.57,-179 252.78,-163.33 252.2,-158.78 249.57,-143 249.12,-140.3 248.48,-137.53 247.74,-134.79"/>
<polygon fill="black" stroke="black" points="251.05,-133.64 244.71,-125.15 244.37,-135.74 251.05,-133.64"/>
</g>
<!-- ipa_otpd -->
<g id="node11" class="node">
<title>ipa_otpd</title>
<polygon fill="none" stroke="black" points="231.07,-179 182.07,-179 182.07,-143 231.07,-143 231.07,-179"/>
<text text-anchor="middle" x="206.57" y="-159.1" font-family="Times-Roman" font-size="8.00">ipa&#45;otpd</text>
</g>
<!-- KDC&#45;&gt;ipa_otpd -->
<g id="edge12" class="edge">
<title>KDC&#45;&gt;ipa_otpd</title>
<path fill="none" stroke="black" d="M212.64,-196.97C210.68,-194.22 208.87,-191.31 207.28,-188.4"/>
<polygon fill="black" stroke="black" points="210.43,-186.86 203.06,-179.24 204.07,-189.79 210.43,-186.86"/>
</g>
<!-- external_idp -->
<g id="node12" class="node">
<title>external_idp</title>
<polygon fill="#b5fed9" stroke="black" points="165.07,-52 102.07,-52 102.07,-16 165.07,-16 165.07,-52"/>
<text text-anchor="middle" x="133.57" y="-32.1" font-family="Times-Roman" font-size="8.00">External IdP</text>
</g>
<!-- ipa_server_invisible&#45;&gt;external_idp -->
<!-- ipa_otpd&#45;&gt;LDAP -->
<g id="edge14" class="edge">
<title>ipa_otpd&#45;&gt;LDAP</title>
<path fill="none" stroke="black" d="M216.72,-142.97C218.41,-140.13 220.21,-137.12 222,-134.11"/>
<polygon fill="black" stroke="black" points="225.17,-135.62 227.29,-125.24 219.16,-132.04 225.17,-135.62"/>
</g>
<!-- ipa_otpd&#45;&gt;KDC -->
<g id="edge13" class="edge">
<title>ipa_otpd&#45;&gt;KDC</title>
<path fill="none" stroke="black" d="M228.65,-179.24C230.6,-182.01 232.4,-184.92 233.98,-187.83"/>
<polygon fill="black" stroke="black" points="230.82,-189.34 238.16,-196.97 237.18,-186.42 230.82,-189.34"/>
</g>
<!-- ipa_otpd&#45;&gt;external_idp -->
<g id="edge15" class="edge">
<title>ipa_otpd&#45;&gt;external_idp</title>
<path fill="none" stroke="black" d="M191.45,-134.11C178.98,-112.77 161.38,-82.63 148.87,-61.2"/>
<polygon fill="black" stroke="black" points="188.5,-136.01 196.57,-142.88 194.55,-132.48 188.5,-136.01"/>
<polygon fill="black" stroke="black" points="151.74,-59.18 143.68,-52.31 145.7,-62.71 151.74,-59.18"/>
<text text-anchor="middle" x="85" y="-99.99" font-family="Times-Roman" font-size="8.00">OAuth 2.0 device authorization grant flow</text>
</g>
</g>
</svg>
